<?xml version="1.0" standalone="no"?>
<!DOCTYPE svg PUBLIC "-//W3C//DTD SVG 20010904//EN"
 "http://www.w3.org/TR/2001/REC-SVG-20010904/DTD/svg10.dtd">
<svg version="1.0" xmlns="http://www.w3.org/2000/svg"
 width="1000.000000pt" height="1000.000000pt" viewBox="0 0 1000.000000 1000.000000"
 preserveAspectRatio="xMidYMid meet">
<metadata>
Created by potrace 1.11, written by Peter Selinger 2001-2013
</metadata>
<g transform="translate(0.000000,1000.000000) scale(0.100000,-0.100000)"
fill="#000000" stroke="none">
<path d="M0 5000 l0 -5000 5000 0 5000 0 0 5000 0 5000 -5000 0 -5000 0 0
-5000z m7140 2116 c662 -85 999 -305 1159 -758 64 -184 93 -439 80 -713 -24
-500 -215 -843 -569 -1024 -290 -149 -655 -210 -1247 -211 l-193 0 0 -815 0
-815 -430 0 -430 0 0 2181 0 2181 753 -5 c612 -4 775 -8 877 -21z m-3654 -63
c-16 -57 -266 -1052 -266 -1062 0 -8 82 -11 298 -11 l299 0 134 536 c74 294
137 540 140 545 3 6 132 8 325 7 l320 -3 -137 -530 c-76 -291 -139 -536 -139
-542 0 -10 63 -13 280 -13 l280 0 0 -310 0 -310 -355 0 -355 0 -10 -22 c-5
-13 -57 -209 -114 -435 l-104 -413 299 0 299 0 0 -310 0 -310 -375 0 -374 0
-9 -32 c-5 -18 -67 -264 -138 -545 l-129 -513 -317 0 c-175 0 -318 3 -318 6 0
6 257 1036 266 1067 5 16 -14 17 -299 17 l-305 0 -76 -307 c-42 -170 -104
-415 -138 -545 l-61 -238 -319 0 c-299 0 -319 1 -314 18 13 44 266 1056 266
1064 0 4 -135 8 -300 8 l-300 0 0 310 0 310 378 0 379 0 107 423 c58 232 106
428 106 435 0 9 -71 12 -320 12 l-320 0 0 310 0 310 403 0 402 0 129 513 c71
281 133 527 138 545 l9 32 320 0 c300 0 320 -1 315 -17z"/>
<path d="M6370 5775 l0 -645 218 0 c342 0 510 24 641 90 118 59 183 137 228
275 22 69 27 102 31 241 7 253 -32 396 -139 509 -124 131 -312 175 -749 175
l-230 0 0 -645z"/>
<path d="M3057 5353 c-6 -9 -217 -842 -217 -855 0 -4 136 -7 303 -6 l302 3
107 424 c59 234 105 428 102 433 -6 10 -591 11 -597 1z"/>
</g>
</svg>
